<svg width="50" height="51" viewBox="0 0 50 51" fill="none" xmlns="http://www.w3.org/2000/svg">
<g id="mdi:prize">
<path id="Vector" d="M18.75 20.8773C18.7716 19.2264 19.437 17.6492 20.6044 16.4817C21.7719 15.3142 23.3491 14.6488 25 14.6273C26.6509 14.6488 28.2281 15.3142 29.3955 16.4817C30.563 17.6492 31.2284 19.2264 31.25 20.8773C31.2284 22.5281 30.563 24.1053 29.3955 25.2728C28.2281 26.4403 26.6509 27.1057 25 27.1273C23.3491 27.1057 21.7719 26.4403 20.6044 25.2728C19.437 24.1053 18.7716 22.5281 18.75 20.8773ZM25 39.6273L33.3333 41.7106V35.2939C30.8201 36.8074 27.9334 37.5868 25 37.5439C22.0666 37.5868 19.1798 36.8074 16.6666 35.2939V41.7106M25 8.37725C23.3582 8.3473 21.7277 8.65343 20.2087 9.27682C18.6896 9.90021 17.3141 10.8277 16.1666 12.0023C14.9794 13.1509 14.0412 14.5316 13.4104 16.0584C12.7796 17.5853 12.4697 19.2255 12.5 20.8773C12.4783 22.5185 12.7923 24.1469 13.4229 25.6623C14.0534 27.1778 14.9871 28.5483 16.1666 29.6898C17.3087 30.8756 18.6818 31.8147 20.2012 32.4489C21.7205 33.0832 23.3537 33.3991 25 33.3773C26.6462 33.3991 28.2795 33.0832 29.7988 32.4489C31.3181 31.8147 32.6912 30.8756 33.8333 29.6898C35.0128 28.5483 35.9465 27.1778 36.5771 25.6623C37.2076 24.1469 37.5217 22.5185 37.5 20.8773C37.5303 19.2255 37.2204 17.5853 36.5896 16.0584C35.9588 14.5316 35.0206 13.1509 33.8333 12.0023C32.6859 10.8277 31.3104 9.90021 29.7913 9.27682C28.2722 8.65343 26.6417 8.3473 25 8.37725ZM41.6666 20.8773C41.6241 22.8772 41.2218 24.8532 40.4791 26.7106C39.8133 28.6019 38.8033 30.3536 37.5 31.8773V47.9606L25 43.7939L12.5 47.9606V31.8773C9.8035 28.849 8.31977 24.932 8.33331 20.8773C8.29659 18.691 8.70839 16.5204 9.54327 14.4994C10.3782 12.4785 11.6184 10.6502 13.1875 9.12725C14.716 7.54412 16.5528 6.29107 18.5845 5.44544C20.6161 4.59981 22.7996 4.17954 25 4.21059C27.2004 4.17954 29.3838 4.59981 31.4155 5.44544C33.4471 6.29107 35.2839 7.54412 36.8125 9.12725C38.3815 10.6502 39.6218 12.4785 40.4567 14.4994C41.2916 16.5204 41.7034 18.691 41.6666 20.8773Z" fill="#FBF9FB"/>
</g>
</svg>
