<svg width="33" height="33" viewBox="0 0 33 33" fill="none" xmlns="http://www.w3.org/2000/svg">
<g id="customisation_30_01_24 1" clip-path="url(#clip0_27144_7330)">
<g id="Group">
<g id="Group_2">
<path id="Vector" fill-rule="evenodd" clip-rule="evenodd" d="M25.48 19.3066V25.9736H10.146C9.2619 25.9736 8.41401 25.6224 7.78886 24.9973C7.16371 24.3721 6.8125 23.5242 6.8125 22.6401C6.8125 21.756 7.16371 20.9082 7.78886 20.283C8.41401 19.6578 9.2619 19.3066 10.146 19.3066H25.48Z" fill="white" stroke="#212121" stroke-width="1.167" stroke-linejoin="round"/>
<path id="Vector_2" fill-rule="evenodd" clip-rule="evenodd" d="M18.6201 9.41064L23.3331 14.1246L12.4911 24.9666C12.1816 25.2762 11.8141 25.5217 11.4097 25.6892C11.0053 25.8567 10.5718 25.9429 10.1341 25.9429C9.69635 25.9429 9.2629 25.8567 8.85848 25.6892C8.45407 25.5217 8.08661 25.2762 7.77708 24.9666C7.46756 24.6571 7.22203 24.2897 7.05451 23.8852C6.887 23.4808 6.80078 23.0474 6.80078 22.6096C6.80078 22.1719 6.887 21.7385 7.05451 21.334C7.22203 20.9296 7.46756 20.5622 7.77708 20.2526L18.6201 9.41064Z" fill="white" stroke="#212121" stroke-width="1.167" stroke-linejoin="round"/>
<path id="Vector_3" fill-rule="evenodd" clip-rule="evenodd" d="M6.7998 7.27686H13.4668V22.6099C13.4668 23.4938 13.1157 24.3416 12.4906 24.9666C11.8655 25.5917 11.0178 25.9429 10.1338 25.9429C9.24984 25.9429 8.40208 25.5917 7.77702 24.9666C7.15196 24.3416 6.8008 23.4938 6.8008 22.6099V7.27686H6.7998Z" fill="white" stroke="#212121" stroke-width="1.167" stroke-linejoin="round"/>
<path id="Vector_4" d="M10.1338 23.9429C10.87 23.9429 11.4668 23.3461 11.4668 22.6099C11.4668 21.8737 10.87 21.2769 10.1338 21.2769C9.39759 21.2769 8.80078 21.8737 8.80078 22.6099C8.80078 23.3461 9.39759 23.9429 10.1338 23.9429Z" fill="#212121"/>
<path id="Vector_5" d="M13.4678 10.6099V7.27686H6.80078V10.6099M13.4678 10.6099H6.80078M13.4678 10.6099V13.9429M6.80078 10.6099V13.9429M13.4678 13.9429H6.80078M13.4678 13.9429V17.2769H6.80078V13.9429" stroke="#212121" stroke-width="1.167" stroke-linejoin="round"/>
</g>
</g>
</g>
<defs>
<clipPath id="clip0_27144_7330">
<rect width="32" height="32" fill="white" transform="translate(0.0869141 0.609863)"/>
</clipPath>
</defs>
</svg>
