<svg width="33" height="33" viewBox="0 0 33 33" fill="none" xmlns="http://www.w3.org/2000/svg">
<g id="early-delivery_30_01_24 1" clip-path="url(#clip0_27144_7345)">
<g id="Group">
<g id="Group_2">
<g id="Vector">
<path fill-rule="evenodd" clip-rule="evenodd" d="M8.08691 10.6099H20.0869V21.9429H8.08691V10.6099ZM20.0869 16.6099H28.0869V21.9429H20.0869V16.6099ZM23.4199 12.6099L26.0869 16.6099H20.0869V12.6099H23.4199Z" fill="white"/>
<path d="M20.0869 21.9429V10.6099H8.08691V21.9429H20.0869ZM20.0869 21.9429H28.0869V16.6099H20.0869M20.0869 21.9429V16.6099M20.0869 16.6099H26.0869L23.4199 12.6099H20.0869V16.6099Z" stroke="#212121" stroke-width="1.167" stroke-linejoin="round"/>
</g>
<path id="Vector_2" d="M12.7539 23.9429C13.8585 23.9429 14.7539 23.0474 14.7539 21.9429C14.7539 20.8383 13.8585 19.9429 12.7539 19.9429C11.6493 19.9429 10.7539 20.8383 10.7539 21.9429C10.7539 23.0474 11.6493 23.9429 12.7539 23.9429Z" fill="white" stroke="#212121" stroke-width="1.167" stroke-linejoin="round"/>
<path id="Vector_3" d="M24.0869 23.9429C25.1915 23.9429 26.0869 23.0474 26.0869 21.9429C26.0869 20.8383 25.1915 19.9429 24.0869 19.9429C22.9823 19.9429 22.0869 20.8383 22.0869 21.9429C22.0869 23.0474 22.9823 23.9429 24.0869 23.9429Z" fill="white" stroke="#212121" stroke-width="1.167" stroke-linejoin="round"/>
<path id="Vector_4" d="M2.08691 13.2769H8.08691M4.08691 15.9429H8.08691M6.08691 18.6099H8.08691" stroke="#212121" stroke-width="1.167" stroke-linecap="round" stroke-linejoin="round"/>
</g>
</g>
</g>
<defs>
<clipPath id="clip0_27144_7345">
<rect width="32" height="32" fill="white" transform="translate(0.0869141 0.609863)"/>
</clipPath>
</defs>
</svg>
