<svg width="51" height="51" viewBox="0 0 51 51" fill="none" xmlns="http://www.w3.org/2000/svg">
<g id="hugeicons:truck-return">
<g id="Group">
<path id="Vector" d="M36.1543 41.7122C37.2594 41.7122 38.3192 41.2733 39.1006 40.4919C39.882 39.7104 40.321 38.6506 40.321 37.5456C40.321 36.4405 39.882 35.3807 39.1006 34.5993C38.3192 33.8179 37.2594 33.3789 36.1543 33.3789C35.0492 33.3789 33.9894 33.8179 33.208 34.5993C32.4266 35.3807 31.9876 36.4405 31.9876 37.5456C31.9876 38.6506 32.4266 39.7104 33.208 40.4919C33.9894 41.2733 35.0492 41.7122 36.1543 41.7122ZM15.321 41.7122C16.426 41.7122 17.4858 41.2733 18.2672 40.4919C19.0486 39.7104 19.4876 38.6506 19.4876 37.5456C19.4876 36.4405 19.0486 35.3807 18.2672 34.5993C17.4858 33.8179 16.426 33.3789 15.321 33.3789C14.2159 33.3789 13.1561 33.8179 12.3747 34.5993C11.5933 35.3807 11.1543 36.4405 11.1543 37.5456C11.1543 38.6506 11.5933 39.7104 12.3747 40.4919C13.1561 41.2733 14.2159 41.7122 15.321 41.7122Z" stroke="#FBF9FB" stroke-width="3.125" stroke-linecap="round" stroke-linejoin="round"/>
<path id="Vector_2" d="M40.321 22.9622H46.571M46.571 22.9622V27.1289C46.571 32.0393 46.571 34.4935 45.046 36.0206C44.0314 37.0352 42.6064 37.3747 40.321 37.4872M46.571 22.9622L43.9126 18.0247C42.4751 15.3539 41.7564 14.0185 40.521 13.2831C39.2876 12.5456 37.773 12.5456 34.7397 12.5456H30.946M11.1543 37.4872C8.86888 37.3747 7.44596 37.0352 6.4293 36.0206C4.9043 34.4935 4.9043 32.0393 4.9043 27.1289V18.7956C4.9043 13.8852 4.9043 11.4289 6.4293 9.90391C7.9543 8.37891 10.4105 8.37891 15.321 8.37891H22.196C24.523 8.37891 25.6855 8.37891 26.6272 8.68516C27.5652 8.98995 28.4177 9.5124 29.1151 10.2098C29.8125 10.9072 30.3349 11.7597 30.6397 12.6977C30.946 13.6393 30.946 14.8018 30.946 17.1289C30.946 19.6706 30.946 20.9435 30.2501 21.8039C30.1126 21.9734 29.9585 22.1275 29.7876 22.2664C28.9272 22.9622 27.6564 22.9622 25.1126 22.9622H17.4043M31.9876 37.5456H19.4876" stroke="#FBF9FB" stroke-width="3.125" stroke-linecap="round" stroke-linejoin="round"/>
<path id="Vector_3" d="M21.571 27.1283C21.571 27.1283 20.171 25.9699 18.9397 24.8699C18.071 24.1699 17.4043 23.572 17.4043 22.972C17.4043 22.4408 17.9251 21.947 18.771 21.172C19.971 20.1741 21.571 18.7949 21.571 18.7949" stroke="#FBF9FB" stroke-width="3.125" stroke-linecap="round" stroke-linejoin="round"/>
</g>
</g>
</svg>
