<svg width="33" height="33" viewBox="0 0 33 33" fill="none" xmlns="http://www.w3.org/2000/svg">
<g id="video-consult_30_01_24 1" clip-path="url(#clip0_27144_7323)">
<g id="Group">
<g id="Group_2">
<path id="Vector" fill-rule="evenodd" clip-rule="evenodd" d="M25.4209 27.9429L20.9759 24.6099H8.50391C8.03978 24.6099 7.59466 24.4255 7.26647 24.0973C6.93828 23.7691 6.75391 23.324 6.75391 22.8599V10.3599C6.75391 9.39386 7.53791 8.60986 8.50391 8.60986H23.6709C24.6369 8.60986 25.4209 9.39386 25.4209 10.3599V27.9429Z" fill="white" stroke="#212121" stroke-width="1.167" stroke-linejoin="round"/>
<path id="Vector_2" fill-rule="evenodd" clip-rule="evenodd" d="M22.0869 14.6908V18.5298C22.087 18.6022 22.0673 18.6733 22.0301 18.7355C21.9929 18.7976 21.9396 18.8485 21.8757 18.8827C21.8119 18.9169 21.7399 18.9331 21.6676 18.9296C21.5952 18.9261 21.5252 18.903 21.4649 18.8628L18.0869 16.6098L21.4649 14.3578C21.5252 14.3176 21.5952 14.2945 21.6676 14.291C21.7399 14.2875 21.8119 14.3037 21.8757 14.3379C21.9396 14.3721 21.9929 14.423 22.0301 14.4851C22.0673 14.5473 22.087 14.6184 22.0869 14.6908Z" fill="white" stroke="#212121" stroke-width="1.167" stroke-linejoin="round"/>
<path id="Vector_3" d="M17.9529 13.2769H11.5549C11.1125 13.2769 10.7539 13.6355 10.7539 14.0779V19.1429C10.7539 19.5852 11.1125 19.9439 11.5549 19.9439H17.9529C18.3953 19.9439 18.7539 19.5852 18.7539 19.1429V14.0779C18.7539 13.6355 18.3953 13.2769 17.9529 13.2769Z" fill="white" stroke="#212121" stroke-width="1.167"/>
</g>
</g>
</g>
<defs>
<clipPath id="clip0_27144_7323">
<rect width="32" height="32" fill="white" transform="translate(0.0869141 0.609863)"/>
</clipPath>
</defs>
</svg>
