<svg width="51" height="51" viewBox="0 0 51 51" fill="none" xmlns="http://www.w3.org/2000/svg">
<g id="arcticons:secure-box">
<path id="Vector" d="M12.5874 19.1708C14.4781 13.9594 19.4729 10.2354 25.3385 10.2354C29.2156 10.2354 32.7135 11.8635 35.1583 14.4063M37.9624 19.4271C38.0979 20.1198 41.9385 30.8698 39.9697 44.2969M16.7354 7.90208C13.2492 9.72581 10.4293 12.6055 8.6791 16.1292M37.9916 10.7687C39.3489 11.876 40.5229 13.4146 41.502 15.3219M6.2041 10.7427C7.40323 9.06359 8.81697 7.54863 10.4093 6.23646M40.1489 6.14062C41.7143 7.41367 43.1104 8.88185 44.3031 10.5094M11.7822 24.7094C11.7822 24.7094 12.2666 29.4323 12.1822 35.2021M11.8447 41.4417C11.75 42.3963 11.6285 43.3481 11.4801 44.2958M16.176 44.2958C16.5249 42.7594 16.6583 41.2052 16.7791 39.6427M35.6541 39.625C35.5839 41.1849 35.4692 42.7425 35.3104 44.2958M20.8729 41.7771C20.9249 41.0562 20.9666 40.3323 21.0166 39.6208M30.7635 41.9229C30.692 42.7148 30.6111 43.5059 30.5208 44.2958M25.9468 39.6625C25.9208 40.5865 25.8781 41.5063 25.8145 42.4063C25.7729 43.0135 25.6541 43.7135 25.5906 44.2969" stroke="#FBF9FB" stroke-width="1.04167" stroke-linecap="round" stroke-linejoin="round"/>
<path id="Vector_2" d="M20.6475 17.9701C20.6475 16.7524 21.1312 15.5846 21.9922 14.7236C22.8532 13.8626 24.021 13.3789 25.2386 13.3789C26.4563 13.3789 27.624 13.8626 28.485 14.7236C29.346 15.5846 29.8298 16.7524 29.8298 17.9701V20.4305" stroke="#FBF9FB" stroke-width="1.04167" stroke-linecap="round" stroke-linejoin="round"/>
<path id="Vector_3" d="M32.4078 20.6055H18.0693C17.1678 20.6055 16.437 21.3363 16.437 22.2378V35.4086C16.437 36.3101 17.1678 37.0409 18.0693 37.0409H32.4078C33.3093 37.0409 34.0401 36.3101 34.0401 35.4086V22.2378C34.0401 21.3363 33.3093 20.6055 32.4078 20.6055Z" stroke="#FBF9FB" stroke-width="1.04167" stroke-linecap="round" stroke-linejoin="round"/>
<path id="Vector_4" d="M20.6475 17.9707V20.6061" stroke="#FBF9FB" stroke-width="1.04167" stroke-miterlimit="7"/>
<path id="Vector_5" d="M25.2371 30.5299C26.5344 30.5299 27.5861 29.4783 27.5861 28.181C27.5861 26.8837 26.5344 25.832 25.2371 25.832C23.9398 25.832 22.8882 26.8837 22.8882 28.181C22.8882 29.4783 23.9398 30.5299 25.2371 30.5299Z" stroke="#FBF9FB" stroke-width="1.04167" stroke-linecap="round" stroke-linejoin="round"/>
<path id="Vector_6" d="M40.5791 5.77539H10.3708C9.2657 5.77539 8.20589 6.21438 7.42449 6.99578C6.64309 7.77718 6.2041 8.83699 6.2041 9.94206V40.1504C6.2041 41.2555 6.64309 42.3153 7.42449 43.0967C8.20589 43.8781 9.2657 44.3171 10.3708 44.3171H40.5791C41.6842 44.3171 42.744 43.8781 43.5254 43.0967C44.3068 42.3153 44.7458 41.2555 44.7458 40.1504V9.94206C44.7458 8.83699 44.3068 7.77718 43.5254 6.99578C42.744 6.21438 41.6842 5.77539 40.5791 5.77539Z" stroke="#FBF9FB" stroke-width="1.04167" stroke-linecap="round" stroke-linejoin="round"/>
</g>
</svg>
