<svg width="50" height="51" viewBox="0 0 50 51" fill="none" xmlns="http://www.w3.org/2000/svg">
<g id="icons8:buy">
<path id="Vector" d="M6.25 10.9825C5.8356 10.9825 5.43817 11.1471 5.14515 11.4401C4.85212 11.7332 4.6875 12.1306 4.6875 12.545C4.6875 12.9594 4.85212 13.3568 5.14515 13.6498C5.43817 13.9429 5.8356 14.1075 6.25 14.1075H9.71875L13.8187 30.5137C14.1672 31.9044 15.4125 32.8575 16.8453 32.8575H36.3297C37.7406 32.8575 38.9391 31.92 39.3094 30.5606L43.3594 15.67H40.0875L36.3281 29.7325H16.8438L12.7453 13.3262C12.576 12.6532 12.1857 12.0564 11.637 11.6314C11.0883 11.2065 10.4128 10.978 9.71875 10.9825H6.25ZM34.375 32.8575C31.8047 32.8575 29.6875 34.9747 29.6875 37.545C29.6875 40.1153 31.8047 42.2325 34.375 42.2325C36.9453 42.2325 39.0625 40.1153 39.0625 37.545C39.0625 34.9747 36.9453 32.8575 34.375 32.8575ZM20.3125 32.8575C17.7422 32.8575 15.625 34.9747 15.625 37.545C15.625 40.1153 17.7422 42.2325 20.3125 42.2325C22.8828 42.2325 25 40.1153 25 37.545C25 34.9747 22.8828 32.8575 20.3125 32.8575ZM25 10.9825V18.795H20.3125L26.5625 25.045L32.8125 18.795H28.125V10.9825H25ZM20.3125 35.9825C21.1938 35.9825 21.875 36.6637 21.875 37.545C21.875 38.4262 21.1938 39.1075 20.3125 39.1075C19.4312 39.1075 18.75 38.4262 18.75 37.545C18.75 36.6637 19.4312 35.9825 20.3125 35.9825ZM34.375 35.9825C35.2563 35.9825 35.9375 36.6637 35.9375 37.545C35.9375 38.4262 35.2563 39.1075 34.375 39.1075C33.4937 39.1075 32.8125 38.4262 32.8125 37.545C32.8125 36.6637 33.4937 35.9825 34.375 35.9825Z" fill="#FBF9FB"/>
</g>
</svg>
