<svg width="33" height="33" viewBox="0 0 33 33" fill="none" xmlns="http://www.w3.org/2000/svg">
<g id="set-break_30_01_24 1" clip-path="url(#clip0_27144_7339)">
<g id="Group">
<g id="Group_2">
<path id="Vector" fill-rule="evenodd" clip-rule="evenodd" d="M18.8271 6.60986C23.5731 6.60986 27.4201 10.4859 27.4201 15.2669C27.4228 16.7293 27.0554 18.1686 26.3521 19.4509L19.1281 15.4339C19.0372 15.3834 18.9614 15.3094 18.9086 15.2198C18.8559 15.1301 18.8281 15.0279 18.8281 14.9239L18.8271 6.60986Z" fill="white" stroke="#212121" stroke-width="1.167"/>
<path id="Vector_2" fill-rule="evenodd" clip-rule="evenodd" d="M16.0129 7.96289V15.9329C16.0129 16.3569 16.2429 16.7469 16.6129 16.9529L23.5369 20.8029C22.0729 23.4709 19.2519 25.2769 16.0129 25.2769C11.2669 25.2769 7.41992 21.4009 7.41992 16.6199C7.41992 11.8389 11.2669 7.96289 16.0129 7.96289Z" fill="white" stroke="#212121" stroke-width="1.167"/>
</g>
</g>
</g>
<defs>
<clipPath id="clip0_27144_7339">
<rect width="32" height="32" fill="white" transform="translate(0.0869141 0.609863)"/>
</clipPath>
</defs>
</svg>
